<?xml version="1.0" encoding="UTF-8" standalone="no" ?>
<!DOCTYPE svg PUBLIC "-//W3C//DTD SVG 1.1//EN" "http://www.w3.org/Graphics/SVG/1.1/DTD/svg11.dtd">
<svg xmlns="http://www.w3.org/2000/svg" xmlns:xlink="http://www.w3.org/1999/xlink" version="1.1" width="1280" height="1024" viewBox="0 0 1280 1024" xml:space="preserve">
<desc>Created with Fabric.js 5.3.0</desc>
<defs>
</defs>
<g transform="matrix(1 0 0 1 640 512)" id="background-logo"  >
<rect style="stroke: none; stroke-width: 0; stroke-dasharray: none; stroke-linecap: butt; stroke-dashoffset: 0; stroke-linejoin: miter; stroke-miterlimit: 4; fill: rgb(238,254,255); fill-rule: nonzero; opacity: 1;"  paint-order="stroke"  x="-640" y="-512" rx="0" ry="0" width="1280" height="1024" />
</g>
<g transform="matrix(1.9211538461538462 0 0 1.9211538461538462 640 411.53300931384223)" id="logo-logo"  >
<g style=""  paint-order="stroke"   >
		<g transform="matrix(0.9363197106527502 0 0 0.9363197106527502 0 -2.842171e-14)"  >
<g style=""  paint-order="stroke"   >
		<g transform="matrix(1 0 0 1 0 0)"  >
<linearGradient id="SVGID_15_1657810" gradientUnits="userSpaceOnUse" gradientTransform="matrix(1 0 0 1 0.04502624017267465 0)"  x1="0" y1="0" x2="0" y2="200">
<stop offset="0%" style="stop-color:rgb(91,36,122);stop-opacity: 1"/>
<stop offset="100%" style="stop-color:rgb(27,206,223);stop-opacity: 1"/>
</linearGradient>
<path style="stroke: none; stroke-width: 1; stroke-dasharray: none; stroke-linecap: butt; stroke-dashoffset: 0; stroke-linejoin: miter; stroke-miterlimit: 4; fill: url(#SVGID_15_1657810); fill-rule: nonzero; opacity: 1;"  paint-order="stroke"  transform=" translate(-88.52251312008632, -99.98645293750333)" d="M 112.09 191.37 C 135.9117490394676 191.40289133956588 158.9506802854889 182.86666739153304 176.99999999999994 167.32000000000002 C 147.7179015429597 198.87132642292275 101.79417391434797 208.67073452469424 62.18382600148399 191.81998298906535 C 22.57347808862002 174.96923145343652 -2.2153738259665374 135.08778239239209 0.20799604130064608 92.11040732620118 C 2.6313659085678296 49.13303226001028 31.74642911720025 12.291069054864465 72.99999999999994 0 C 29.42401103025805 18.558548374292283 4.926882766681885 65.22047405121893 14.396470202688924 111.6275149636046 C 23.866057638695963 158.03455587599026 64.6866541643586 191.36807504709162 112.05000000000007 191.37 Z" stroke-linecap="round" />
</g>
</g>
</g>
</g>
</g>
<g transform="matrix(1.9211538461538462 0 0 1.9211538461538462 640.0730038461538 677.368514237116)" id="text-logo"  >
<g style=""  paint-order="stroke"   >
		<g transform="matrix(1 0 0 1 0 0)" id="text-logo-path-0"  >
<path style="stroke: none; stroke-width: 0.40425531914893537; stroke-dasharray: none; stroke-linecap: butt; stroke-dashoffset: 0; stroke-linejoin: miter; stroke-miterlimit: 4; fill: rgb(65,103,162); fill-rule: nonzero; opacity: 1;"  paint-order="stroke"  transform=" translate(-132.18500000000003, 13.299999999999999)" d="M 6.08 0 L 6.08 -10.07 L 15.54 -10.07 L 21.66 0 L 26.98 0 L 20.52 -10.68 C 23.56 -11.89 25.73 -14.86 25.73 -18.32 C 25.73 -22.88 21.96 -26.6 17.44 -26.6 L 1.52 -26.6 L 1.52 0 Z M 6.08 -14.63 L 6.08 -22.04 L 17.44 -22.04 C 19.76 -22.04 21.17 -20.67 21.17 -18.32 C 21.17 -16 19.76 -14.63 17.44 -14.63 Z M 52.55 0 L 54.26 -4.18 L 67.56 -4.18 L 69.27 0 L 74.21 0 L 63.38 -26.6 L 58.44 -26.6 L 47.61 0 Z M 56.13 -8.74 L 60.91 -20.52 L 65.7 -8.74 Z M 99.56 0 L 99.56 -20.33 L 113.51 0 L 119.32 0 L 119.32 -26.6 L 114.76 -26.6 L 114.76 -6.27 L 100.81 -26.6 L 95 -26.6 L 95 0 Z M 140.11 0 L 150.02 0 C 160.51 0 164.65 -3.72 164.65 -13.34 C 164.65 -22.46 160.36 -26.6 150.02 -26.6 L 140.11 -26.6 Z M 144.67 -4.56 L 144.67 -22.04 L 150.02 -22.04 C 158.19 -22.04 160.09 -20.22 160.09 -13.34 C 160.09 -6.08 158.42 -4.56 150.02 -4.56 Z M 198.74 -4.37 C 193.46 -4.37 189.85 -8.02 189.85 -13.34 C 189.85 -18.62 193.46 -22.23 198.74 -22.23 C 204.02 -22.23 207.63 -18.62 207.63 -13.34 C 207.63 -8.02 204.02 -4.37 198.74 -4.37 Z M 185.29 -13.34 C 185.29 -5.81 191.25 0.19 198.74 0.19 C 206.23 0.19 212.19 -5.81 212.19 -13.34 C 212.19 -20.82 206.23 -26.79 198.74 -26.79 C 191.25 -26.79 185.29 -20.82 185.29 -13.34 Z M 237.39 0 L 237.39 -16.8 L 244.95 0 L 250.72 0 L 258.29 -16.8 L 258.29 0 L 262.85 0 L 262.85 -26.6 L 257.68 -26.6 L 247.84 -4.71 L 237.99 -26.6 L 232.83 -26.6 L 232.83 0 Z" stroke-linecap="round" />
</g>
</g>
</g>
<g transform="matrix(1.9211538461538462 0 0 1.9211538461538462 671.9079639423077 432.8874551084035)" id="tagline-d3f01c9a-824c-4986-a818-082838c18832-logo"  >
<g style=""  paint-order="stroke"   >
		<g transform="matrix(1 0 0 1 0 0)" id="tagline-d3f01c9a-824c-4986-a818-082838c18832-logo-path-0"  >
<linearGradient id="SVGID_1657811" gradientUnits="userSpaceOnUse" gradientTransform="matrix(1 0 0 1 3.0899999999999963 -72.1)"  x1="-3.1157496070861725" y1="-18.451419999999985" x2="-3.1157496070861725" y2="97.54858000000002">
<stop offset="0%" style="stop-color:rgb(91,36,122);stop-opacity: 1"/>
<stop offset="100%" style="stop-color:rgb(27,206,223);stop-opacity: 1"/>
</linearGradient>
<filter id="SVGID_1657807" y="-20%" height="140%" x="-26.77353804470535%" width="153.5470760894107%" >
	<feGaussianBlur in="SourceAlpha" stdDeviation="0"></feGaussianBlur>
	<feOffset dx="6" dy="0" result="oBlur" ></feOffset>
	<feFlood flood-color="rgb(217,232,232)" flood-opacity="1"/>
	<feComposite in2="oBlur" operator="in" />
	<feMerge>
		<feMergeNode></feMergeNode>
		<feMergeNode in="SourceGraphic"></feMergeNode>
	</feMerge>
</filter>
<path style="stroke: none; stroke-width: 0; stroke-dasharray: none; stroke-linecap: butt; stroke-dashoffset: 0; stroke-linejoin: miter; stroke-miterlimit: 4; fill: url(#SVGID_1657811); fill-rule: nonzero; opacity: 1;filter: url(#SVGID_1657807);"  paint-order="stroke"  transform=" translate(-47.379999999999995, 26.985)" d="M 28.84 -72.1 L 3.09 -72.1 L 3.09 0 L 10.71 0 L 10.71 -21.73 L 19.88 -21.73 C 24.62 -21.12 28.74 -18.85 32.34 -15.97 C 38.11 -11.33 42.75 -5.46 48.41 0 C 53.97 5.36 59.64 11.12 67.26 15.04 C 70.97 16.89 75.29 18.13 79.62 18.13 C 84.05 18.13 88.17 16.79 91.67 14.73 L 90.54 12.05 C 87.96 12.77 85.39 13.18 82.92 13.18 C 74.68 13.18 67.77 7.93 61.9 2.58 C 59.12 0 56.44 -2.68 53.77 -5.46 C 47.48 -11.95 39.35 -18.54 30.8 -21.84 C 43.78 -22.87 53.97 -33.68 53.97 -46.97 C 53.97 -60.87 42.75 -72.1 28.84 -72.1 Z M 10.71 -24.62 L 10.71 -69.22 L 24 -69.22 C 36.36 -69.22 46.35 -59.23 46.35 -46.97 C 46.35 -34.61 36.36 -24.62 24 -24.62 Z" stroke-linecap="round" />
</g>
</g>
</g>
<g transform="matrix(1.9211538461538462 0 0 1.9211538461538462 640.040344230769 760.0267660211766)" id="tagline-5c738b89-07a3-4351-9a2d-505579ae2938-logo"  >
<g style=""  paint-order="stroke"   >
		<g transform="matrix(1 0 0 1 5.684342e-14 0)" id="tagline-5c738b89-07a3-4351-9a2d-505579ae2938-logo-path-0"  >
<path style="stroke: none; stroke-width: 0; stroke-dasharray: none; stroke-linecap: butt; stroke-dashoffset: 0; stroke-linejoin: miter; stroke-miterlimit: 4; fill: rgb(36,180,207); fill-rule: nonzero; opacity: 1;"  paint-order="stroke"  transform=" translate(-275.7, 9.799999999999999)" d="M 17.98 -2.72 L 15.62 -5.12 C 14.36 -3.86 12.91 -3.22 11.03 -3.22 C 7.14 -3.22 4.48 -5.94 4.48 -9.83 C 4.48 -13.66 7.14 -16.38 11.03 -16.38 C 12.91 -16.38 14.36 -15.74 15.62 -14.48 L 17.98 -16.88 C 16.21 -18.62 13.75 -19.74 11.03 -19.74 C 5.52 -19.74 1.12 -15.29 1.12 -9.83 C 1.12 -4.31 5.52 0.14 11.03 0.14 C 13.75 0.14 16.21 -0.98 17.98 -2.72 Z M 49.34 -3.22 C 45.44 -3.22 42.78 -5.91 42.78 -9.83 C 42.78 -13.72 45.44 -16.38 49.34 -16.38 C 53.23 -16.38 55.89 -13.72 55.89 -9.83 C 55.89 -5.91 53.23 -3.22 49.34 -3.22 Z M 39.42 -9.83 C 39.42 -4.28 43.82 0.14 49.34 0.14 C 54.85 0.14 59.25 -4.28 59.25 -9.83 C 59.25 -15.34 54.85 -19.74 49.34 -19.74 C 43.82 -19.74 39.42 -15.34 39.42 -9.83 Z M 85.18 0 L 85.18 -7.42 L 93.55 -7.42 C 96.88 -7.42 99.65 -10.16 99.65 -13.5 C 99.65 -16.86 96.88 -19.6 93.55 -19.6 L 81.82 -19.6 L 81.82 0 Z M 85.18 -10.78 L 85.18 -16.24 L 93.55 -16.24 C 95.26 -16.24 96.29 -15.23 96.29 -13.5 C 96.29 -11.79 95.26 -10.78 93.55 -10.78 Z M 136.89 -19.6 L 130.98 -11.87 L 125.08 -19.6 L 120.82 -19.6 L 129.3 -8.54 L 129.3 0 L 132.66 0 L 132.66 -8.54 L 141.15 -19.6 Z M 199.56 -3.22 C 195.66 -3.22 193 -5.91 193 -9.83 C 193 -13.72 195.66 -16.38 199.56 -16.38 C 203.45 -16.38 206.11 -13.72 206.11 -9.83 C 206.11 -5.91 203.45 -3.22 199.56 -3.22 Z M 189.64 -9.83 C 189.64 -4.28 194.04 0.14 199.56 0.14 C 205.07 0.14 209.47 -4.28 209.47 -9.83 C 209.47 -15.34 205.07 -19.74 199.56 -19.74 C 194.04 -19.74 189.64 -15.34 189.64 -9.83 Z M 235.4 0 L 235.4 -7.98 L 244.08 -7.98 L 244.08 -11.34 L 235.4 -11.34 L 235.4 -16.24 L 246.88 -16.24 L 246.88 -19.6 L 232.04 -19.6 L 232.04 0 Z M 305.28 -3.22 C 301.39 -3.22 298.73 -5.91 298.73 -9.83 C 298.73 -13.72 301.39 -16.38 305.28 -16.38 C 309.18 -16.38 311.84 -13.72 311.84 -9.83 C 311.84 -5.91 309.18 -3.22 305.28 -3.22 Z M 295.37 -9.83 C 295.37 -4.28 299.77 0.14 305.28 0.14 C 310.8 0.14 315.2 -4.28 315.2 -9.83 C 315.2 -15.34 310.8 -19.74 305.28 -19.74 C 299.77 -19.74 295.37 -15.34 295.37 -9.83 Z M 354.62 -2.72 L 352.27 -5.12 C 351.01 -3.86 349.55 -3.22 347.68 -3.22 C 343.78 -3.22 341.12 -5.94 341.12 -9.83 C 341.12 -13.66 343.78 -16.38 347.68 -16.38 C 349.55 -16.38 351.01 -15.74 352.27 -14.48 L 354.62 -16.88 C 352.86 -18.62 350.39 -19.74 347.68 -19.74 C 342.16 -19.74 337.76 -15.29 337.76 -9.83 C 337.76 -4.31 342.16 0.14 347.68 0.14 C 350.39 0.14 352.86 -0.98 354.62 -2.72 Z M 386.85 0 L 386.85 -16.24 L 393.71 -16.24 L 393.71 -19.6 L 376.63 -19.6 L 376.63 -16.24 L 383.49 -16.24 L 383.49 0 Z M 416.56 0 L 417.82 -3.08 L 427.62 -3.08 L 428.88 0 L 432.52 0 L 424.54 -19.6 L 420.9 -19.6 L 412.92 0 Z M 419.19 -6.44 L 422.72 -15.12 L 426.24 -6.44 Z M 458.56 0 L 458.56 -14.98 L 468.83 0 L 473.12 0 L 473.12 -19.6 L 469.76 -19.6 L 469.76 -4.62 L 459.48 -19.6 L 455.2 -19.6 L 455.2 0 Z M 495.8 0 L 510.64 0 L 510.64 -3.36 L 499.16 -3.36 L 499.16 -8.82 L 507.84 -8.82 L 507.84 -12.18 L 499.16 -12.18 L 499.16 -16.24 L 510.64 -16.24 L 510.64 -19.6 L 495.8 -19.6 Z M 543.42 0 L 543.42 -16.24 L 550.28 -16.24 L 550.28 -19.6 L 533.2 -19.6 L 533.2 -16.24 L 540.06 -16.24 L 540.06 0 Z" stroke-linecap="round" />
</g>
</g>
</g>
</svg>